<svg xmlns="http://www.w3.org/2000/svg" viewBox="0 0 512 512" role="img" aria-label="AerialMetric icon">
  <defs>
    <linearGradient id="bg" x1="68" y1="52" x2="440" y2="456" gradientUnits="userSpaceOnUse">
      <stop offset="0" stop-color="#e0f2fe"/>
      <stop offset="0.48" stop-color="#38bdf8"/>
      <stop offset="1" stop-color="#14b8a6"/>
    </linearGradient>
    <linearGradient id="terrain" x1="92" y1="374" x2="420" y2="374" gradientUnits="userSpaceOnUse">
      <stop offset="0" stop-color="#2563eb"/>
      <stop offset="0.5" stop-color="#14b8a6"/>
      <stop offset="1" stop-color="#f97316"/>
    </linearGradient>
    <filter id="softShadow" x="-20%" y="-20%" width="140%" height="140%">
      <feDropShadow dx="0" dy="14" stdDeviation="18" flood-color="#0f172a" flood-opacity="0.18"/>
    </filter>
  </defs>
  <rect width="512" height="512" rx="112" fill="url(#bg)"/>
  <path d="M74 130c78-68 192-83 302-35 35 15 63 35 85 58v-38C402 53 305 22 207 35 147 43 101 67 74 98v32Z" fill="#ffffff" opacity="0.38"/>
  <path d="M140 162c34-28 72-42 116-42 44 0 82 14 116 42" fill="none" stroke="#ffffff" stroke-width="12" stroke-linecap="round" opacity="0.7"/>
  <g filter="url(#softShadow)">
    <circle cx="146" cy="150" r="24" fill="#ffffff" opacity="0.9"/>
    <circle cx="366" cy="150" r="24" fill="#ffffff" opacity="0.9"/>
    <circle cx="146" cy="150" r="11" fill="#2563eb"/>
    <circle cx="366" cy="150" r="11" fill="#2563eb"/>
    <path d="M174 150h164" stroke="#0f172a" stroke-width="18" stroke-linecap="round"/>
    <path d="M256 128v52" stroke="#0f172a" stroke-width="16" stroke-linecap="round"/>
    <rect x="222" y="132" width="68" height="42" rx="18" fill="#0f172a"/>
    <circle cx="256" cy="153" r="8" fill="#f97316"/>
  </g>
  <g filter="url(#softShadow)">
    <text x="256" y="318" fill="#0f172a" font-family="Arial, Helvetica, sans-serif" font-size="156" font-weight="900" letter-spacing="-9" text-anchor="middle">AM</text>
    <path d="M96 392c44-36 90-37 136-8 40 25 82 20 128-20 24-21 50-28 78-12" fill="none" stroke="#ffffff" stroke-width="34" stroke-linecap="round" stroke-linejoin="round" opacity="0.72"/>
    <path d="M96 392c44-36 90-37 136-8 40 25 82 20 128-20 24-21 50-28 78-12" fill="none" stroke="url(#terrain)" stroke-width="18" stroke-linecap="round" stroke-linejoin="round"/>
    <circle cx="438" cy="352" r="15" fill="#f97316"/>
    <circle cx="438" cy="352" r="7" fill="#fff7ed"/>
  </g>
</svg>
