<svg xmlns="http://www.w3.org/2000/svg" viewBox="0 0 512 512" role="img" aria-label="AerialMetric icon">
  <defs>
    <linearGradient id="bg" x1="72" y1="56" x2="440" y2="456" gradientUnits="userSpaceOnUse">
      <stop offset="0" stop-color="#1d4ed8"/>
      <stop offset="0.52" stop-color="#0f766e"/>
      <stop offset="1" stop-color="#111827"/>
    </linearGradient>
    <linearGradient id="ridge" x1="120" y1="350" x2="392" y2="350" gradientUnits="userSpaceOnUse">
      <stop offset="0" stop-color="#93c5fd"/>
      <stop offset="1" stop-color="#f59e0b"/>
    </linearGradient>
    <filter id="softShadow" x="-20%" y="-20%" width="140%" height="140%">
      <feDropShadow dx="0" dy="18" stdDeviation="18" flood-color="#020617" flood-opacity="0.26"/>
    </filter>
  </defs>
  <rect width="512" height="512" rx="112" fill="url(#bg)"/>
  <g filter="url(#softShadow)">
    <path d="M116 352 176 176h52l60 176h-47l-11-38h-59l-11 38h-44Zm66-75h37l-18-64-19 64Zm126 75V176h50l42 76 42-76h50v176h-43V243l-36 66h-26l-36-66v109h-43Z" fill="#ffffff"/>
    <path d="M118 393c42-38 77-39 114-12 34 25 67 21 104-19 22-24 42-33 58-26" fill="none" stroke="url(#ridge)" stroke-width="18" stroke-linecap="round" stroke-linejoin="round"/>
    <circle cx="394" cy="336" r="14" fill="#f59e0b"/>
  </g>
</svg>
